# xmcd CD database file
#
# Track frame offsets:
#	156
#	23764
#	58603
#	79304
#	102189
#	132944
#	163342
#	189708
#	246931
#	281793
#
# Disc length: 4238 seconds
#
# Revision: 1
# Processed by: cddbd v1.4PL0 Copyright (c) Steve Scherf et al.
# Submitted via: CDex 1.50Beta7
#
DISCID=8f108c0a
DTITLE=Jean Toussaint - Blue Black
DYEAR=2001
DGENRE=Jazz
TTITLE0=Island Rhythm
TTITLE1=A Song For Lionel
TTITLE2=Hymn
TTITLE3=The cant take that away from me
TTITLE4=Blue Black
TTITLE5=Monk's Mood
TTITLE6=One for Ronnie
TTITLE7=Willow weep for me
TTITLE8=But not for me
TTITLE9=?
EXTD=YEAR: 2001
EXTT0=
EXTT1=
EXTT2=
EXTT3=
EXTT4=
EXTT5=
EXTT6=
EXTT7=
EXTT8=
EXTT9=
PLAYORDER=
